<svg width="57" height="24" viewBox="0 0 57 24" fill="none" xmlns="http://www.w3.org/2000/svg">
<path d="M4.592 3.44V6.848H10.088V10.016H4.592V13.712H10.808V17H0.488V0.151999H10.808V3.44H4.592ZM21.3924 17L18.8244 13.28L16.6644 17H12.2244L16.6404 10.16L12.1044 3.608H16.7124L19.2804 7.304L21.4404 3.608H25.8804L21.3924 10.352L26.0004 17H21.3924ZM31.6858 5.504C32.0858 4.88 32.6378 4.376 33.3418 3.992C34.0458 3.608 34.8698 3.416 35.8138 3.416C36.9178 3.416 37.9178 3.696 38.8138 4.256C39.7098 4.816 40.4138 5.616 40.9258 6.656C41.4538 7.696 41.7178 8.904 41.7178 10.28C41.7178 11.656 41.4538 12.872 40.9258 13.928C40.4138 14.968 39.7098 15.776 38.8138 16.352C37.9178 16.912 36.9178 17.192 35.8138 17.192C34.8858 17.192 34.0618 17 33.3418 16.616C32.6378 16.232 32.0858 15.736 31.6858 15.128V23.384H27.5818V3.608H31.6858V5.504ZM37.5418 10.28C37.5418 9.256 37.2538 8.456 36.6778 7.88C36.1178 7.288 35.4218 6.992 34.5898 6.992C33.7738 6.992 33.0778 7.288 32.5018 7.88C31.9418 8.472 31.6618 9.28 31.6618 10.304C31.6618 11.328 31.9418 12.136 32.5018 12.728C33.0778 13.32 33.7738 13.616 34.5898 13.616C35.4058 13.616 36.1018 13.32 36.6778 12.728C37.2538 12.12 37.5418 11.304 37.5418 10.28ZM49.9668 17.192C48.6548 17.192 47.4708 16.912 46.4148 16.352C45.3748 15.792 44.5508 14.992 43.9428 13.952C43.3508 12.912 43.0548 11.696 43.0548 10.304C43.0548 8.928 43.3588 7.72 43.9668 6.68C44.5748 5.624 45.4068 4.816 46.4628 4.256C47.5188 3.696 48.7028 3.416 50.0148 3.416C51.3268 3.416 52.5108 3.696 53.5668 4.256C54.6228 4.816 55.4548 5.624 56.0628 6.68C56.6708 7.72 56.9748 8.928 56.9748 10.304C56.9748 11.68 56.6628 12.896 56.0388 13.952C55.4308 14.992 54.5908 15.792 53.5188 16.352C52.4628 16.912 51.2788 17.192 49.9668 17.192ZM49.9668 13.64C50.7508 13.64 51.4148 13.352 51.9588 12.776C52.5188 12.2 52.7988 11.376 52.7988 10.304C52.7988 9.232 52.5268 8.408 51.9828 7.832C51.4548 7.256 50.7988 6.968 50.0148 6.968C49.2148 6.968 48.5508 7.256 48.0228 7.832C47.4948 8.392 47.2308 9.216 47.2308 10.304C47.2308 11.376 47.4868 12.2 47.9988 12.776C48.5268 13.352 49.1828 13.64 49.9668 13.64Z" fill="black"/>
</svg>
